<?xml version="1.0" standalone="no"?>
<!DOCTYPE svg PUBLIC "-//W3C//DTD SVG 20010904//EN"
 "http://www.w3.org/TR/2001/REC-SVG-20010904/DTD/svg10.dtd">
<svg version="1.0" xmlns="http://www.w3.org/2000/svg"
 width="577.000000pt" height="245.000000pt" viewBox="0 0 577.000000 245.000000"
 preserveAspectRatio="xMidYMid meet">
<metadata>
Created by potrace 1.16, written by Peter Selinger 2001-2019
</metadata>
<g transform="translate(0.000000,245.000000) scale(0.100000,-0.100000)"
fill="#000000" stroke="none">
<path d="M210 2292 c0 -10 -6 -24 -12 -30 -10 -10 -13 -65 -13 -204 0 -144 3
-192 13 -195 6 -3 12 -15 12 -29 0 -34 46 -144 75 -179 63 -75 105 -111 168
-140 71 -33 159 -46 172 -24 4 6 -12 31 -39 58 -25 26 -46 51 -46 55 0 5 8 0
18 -11 30 -36 91 -71 111 -66 11 3 22 15 24 27 4 21 4 21 6 -1 1 -21 18 -30
46 -23 45 11 49 10 23 -5 -17 -9 -25 -21 -22 -30 8 -21 148 -21 200 0 69 27
109 53 144 90 44 47 60 69 60 82 0 7 4 13 9 13 5 0 13 15 16 33 4 17 11 37 16
43 4 5 11 48 15 94 l7 83 -100 -5 c-55 -3 -109 -11 -119 -16 -10 -6 -41 -21
-69 -34 -60 -28 -155 -107 -155 -130 0 -3 -6 -13 -13 -20 -8 -7 -19 -27 -25
-43 -10 -28 -10 -26 -11 27 -1 31 -5 59 -10 62 -4 3 -11 25 -14 49 -9 67 -46
127 -122 199 -27 27 -53 48 -56 48 -4 0 -14 6 -21 13 -7 7 -24 18 -38 25 -23
11 -46 25 -74 44 -36 24 -124 111 -136 132 -15 30 -40 35 -40 8z"/>
<path d="M1865 1115 c-27 -8 -53 -14 -56 -15 -3 0 -27 -19 -53 -41 -48 -43
-86 -103 -86 -138 0 -11 -4 -23 -10 -26 -16 -10 -12 -131 6 -188 36 -112 114
-178 227 -193 28 -4 62 -13 76 -20 14 -8 34 -14 44 -14 9 0 17 -4 17 -9 0 -5
18 -12 40 -16 22 -4 42 -11 46 -16 16 -26 84 1 84 34 0 22 -32 81 -52 95 -18
13 -17 15 7 44 14 16 25 36 25 43 0 7 5 15 10 17 6 2 14 30 17 63 3 33 10 68
14 77 5 9 5 19 0 22 -4 3 -11 31 -14 63 -7 71 -26 111 -77 157 -72 65 -172 88
-265 61z m105 -135 c0 -5 6 -10 14 -10 18 0 56 -60 56 -88 0 -11 5 -24 10 -27
12 -8 13 -75 1 -75 -5 0 -11 -18 -15 -40 -4 -28 -15 -46 -39 -65 -46 -34 -79
-32 -125 9 l-37 34 0 94 c0 83 3 96 24 126 14 17 31 32 38 32 7 0 13 5 13 10
0 6 14 10 30 10 17 0 30 -4 30 -10z"/>
<path d="M3220 1124 c-120 -20 -201 -77 -246 -172 -34 -73 -37 -202 -5 -275
24 -56 90 -124 129 -133 15 -4 33 -12 41 -18 9 -7 58 -11 126 -10 125 1 145 9
145 62 0 48 -36 72 -108 72 -33 0 -63 4 -66 9 -3 5 -17 12 -31 15 -33 8 -63
38 -71 71 -3 14 -10 28 -15 31 -12 7 -11 71 1 79 6 3 10 15 10 27 0 26 62 88
88 88 12 0 24 5 27 10 3 6 34 10 69 10 72 0 93 15 102 71 5 32 3 35 -28 46
-39 14 -132 23 -168 17z"/>
<path d="M2244 1106 c-3 -8 -4 -116 -2 -242 2 -171 6 -228 16 -232 6 -2 12 -9
12 -16 0 -15 57 -68 93 -86 41 -20 184 -19 228 3 45 21 85 61 107 106 14 31
17 69 17 256 l0 220 -27 3 c-35 4 -81 -20 -107 -57 -19 -26 -21 -43 -21 -168
0 -76 -5 -154 -10 -174 -11 -38 -46 -69 -78 -69 -22 0 -62 35 -62 55 0 8 -4
15 -9 15 -6 0 -11 73 -13 168 -3 159 -4 168 -26 190 -40 40 -107 56 -118 28z"/>
<path d="M2768 1114 c-5 -4 -8 -128 -8 -275 l0 -268 34 -26 c27 -21 44 -26 78
-23 l43 3 3 260 2 260 -27 34 c-22 26 -38 34 -73 38 -25 3 -48 1 -52 -3z"/>
<path d="M3463 1113 c-10 -3 -13 -69 -13 -277 0 -327 -3 -319 102 -314 l63 3
3 128 3 129 26 -49 c14 -26 35 -64 45 -83 57 -108 88 -130 182 -130 36 0 67 4
71 9 6 11 -17 56 -99 193 l-58 97 29 53 c15 29 30 55 33 58 8 8 29 43 42 70 7
14 15 27 18 30 3 3 13 20 23 39 23 43 13 51 -66 51 -100 0 -116 -15 -219 -209
l-23 -44 -3 103 c-3 96 -5 105 -28 127 -19 18 -36 23 -72 22 -26 0 -53 -3 -59
-6z"/>
<path d="M4023 1108 c-12 -5 -24 -20 -27 -32 -4 -11 -7 -113 -7 -226 -1 -215
4 -249 44 -285 42 -38 74 -45 207 -45 l130 0 0 43 c1 39 2 41 13 19 7 -13 28
-32 45 -43 30 -17 51 -19 229 -18 155 0 201 4 219 15 21 14 66 95 62 111 -3
13 63 212 72 218 4 3 11 -15 14 -40 4 -24 11 -47 15 -50 5 -2 12 -25 15 -50 4
-24 11 -47 17 -50 5 -4 9 -13 9 -21 0 -8 9 -35 20 -59 29 -64 58 -76 177 -74
l98 2 32 36 c32 34 33 39 33 119 l0 82 75 0 c76 0 136 19 162 52 42 51 66 144
45 171 -5 7 -13 23 -17 37 -10 32 -47 66 -92 85 -42 18 -308 22 -318 5 -3 -6
-6 -135 -5 -288 0 -254 -1 -275 -15 -248 -8 16 -18 46 -21 67 -4 22 -10 39
-14 39 -6 0 -22 69 -19 86 0 4 -3 10 -8 13 -8 6 -25 59 -45 141 -6 25 -14 50
-18 55 -4 6 -11 26 -15 45 -17 83 -103 122 -191 85 -20 -8 -38 -24 -41 -35 -3
-11 -9 -20 -14 -20 -4 0 -11 -20 -15 -45 -3 -25 -10 -45 -15 -45 -5 0 -8 -3
-7 -7 3 -12 -13 -77 -22 -88 -5 -5 -11 -31 -15 -57 -4 -27 -11 -48 -16 -48 -4
0 -11 -20 -15 -45 -3 -25 -10 -48 -15 -50 -4 -3 -11 -27 -16 -53 l-7 -47 -6
35 c-7 45 -41 62 -140 69 l-75 6 -3 42 -3 42 87 3 c87 3 88 3 107 35 18 32 18
33 -3 63 -21 29 -23 30 -106 30 l-84 0 0 40 0 40 73 1 c70 0 131 21 133 45 0
5 4 24 8 42 13 56 0 62 -134 62 -81 0 -129 -5 -153 -15 -40 -17 -87 -68 -87
-95 0 -10 -4 -22 -10 -25 -15 -9 -13 -318 2 -333 18 -18 -4 -15 -31 4 -17 12
-38 15 -82 12 -93 -7 -93 -7 -99 241 l-5 206 -45 2 c-25 1 -55 -3 -67 -9z"/>
</g>
</svg>
